:SAMPLES-PER-SECOND 30
:FULLY-SPECIFIED
:DEGREES
20
root  9.57995 40.6688 -0.882908 -155.909 -86.0557 152.925
RightUpLeg  -1.61675 -10.5044 -7.23334
RightLeg  11.1026 -3.76163 1.33027
RightFoot  -8.22018 -0.118537 2.29715
RightToes  0.00048216 0.542163 -0.142577
Spine  6.56748 0.36497 -1.69444
Spine1  -4.56905 0.295837 0.430569
HEad  3.28374 -9.82541 -0.569852
LeftShoulder1  0.817184 -1.62382 -8.37855
LeftArm  -19.1534 9.05468 -3.78146
LeftForeArm  9.00766 -0.618344 -0.900838
LeftHand  -0.25398 0.0180481 5.50724
RightShoulder  0.570905 -0.0361672 9.08198
RightArm  -19.2501 -6.65692 1.40441
RightForeArm  -0.937121 2.60319 2.95751
RightHand  -2.52927 7.72433 -22.5339
LeftUpLeg  -1.2719 4.40232 -1.19453
LeftLeg  7.24088 16.9372 -1.98108
LeftFoot  -7.08313 0.0123962 0.810455
LeftToes  1.06244e-005 4.65854e-005 -8.18505e-006
21
root  9.39497 40.6626 -0.797416 -158.398 -85.8949 155.251
RightUpLeg  -1.26785 -10.4748 -7.29473
RightLeg  11.3537 -3.41964 1.21414
RightFoot  -8.71938 -0.108346 2.1437
RightToes  0.00048216 0.542163 -0.142577
Spine  6.49582 0.379564 -1.38289
Spine1  -4.46511 0.361509 0.157562
HEad  4.40759 -9.41915 -0.597989
LeftShoulder1  0.81283 -1.5399 -8.57489
LeftArm  -19.7623 9.45537 -4.11893
LeftForeArm  9.21786 -0.990502 -0.647325
LeftHand  -0.25398 0.0180481 5.50724
RightShoulder  0.594551 0.0601382 9.32601
RightArm  -19.5189 -6.92279 1.65907
RightForeArm  -1.23979 3.07751 2.94713
RightHand  -2.57025 7.81612 -22.7308
LeftUpLeg  -0.83139 4.57757 -1.20115
LeftLeg  7.52675 16.9859 -1.85063
LeftFoot  -8.0114 0.0447039 0.123095
LeftToes  1.06244e-005 4.65854e-005 -8.18505e-006
22
root  9.19489 40.6519 -0.718796 -161.751 -85.6698 158.383
RightUpLeg  -0.941963 -10.4626 -7.26876
RightLeg  11.7726 -3.03975 1.0429
RightFoot  -9.34551 -0.0981011 1.99089
RightToes  0.00048216 0.542163 -0.142577
Spine  6.46912 0.482789 -1.04911
Spine1  -4.3106 0.510777 -0.0642116
HEad  5.70372 -9.02156 -0.573412
LeftShoulder1  0.801783 -1.36035 -8.9788
LeftArm  -20.4797 9.6312 -4.83383
LeftForeArm  9.5394 -1.49714 -0.42267
LeftHand  -0.25398 0.0180481 5.50724
RightShoulder  0.619547 0.138374 9.69326
RightArm  -20.0097 -7.71288 2.21542
RightForeArm  -2.35299 4.23879 2.9947
RightHand  -2.69837 8.1092 -23.3219
LeftUpLeg  -0.233595 5.01155 -1.01636
LeftLeg  7.69763 16.802 -1.91992
LeftFoot  -8.83992 0.0638504 -0.489029
LeftToes  1.06244e-005 4.65854e-005 -8.18505e-006
23
root  8.98937 40.6209 -0.662944 -165.781 -85.3299 162.084
RightUpLeg  -0.650436 -10.4763 -7.12742
RightLeg  12.4586 -2.55507 0.71205
RightFoot  -10.3142 -0.089193 2.19309
RightToes  0.00048216 0.542163 -0.142577
Spine  6.50857 0.718479 -0.779941
Spine1  -3.94714 0.771619 -0.21317
HEad  7.06636 -8.62763 -0.51974
LeftShoulder1  0.815981 -1.21668 -9.85907
LeftArm  -21.4184 9.60816 -5.86476
LeftForeArm  10.2213 -2.35629 -0.20439
LeftHand  -0.25398 0.0180481 5.50724
RightShoulder  0.654545 0.21777 10.3376
RightArm  -20.5848 -9.18063 3.00616
RightForeArm  -4.09485 6.48447 3.21659
RightHand  -2.83216 8.35116 -24.0185
LeftUpLeg  0.441164 5.77376 -0.594159
LeftLeg  8.05258 16.3856 -2.12061
LeftFoot  -9.75535 0.0739657 -1.12737
LeftToes  1.06244e-005 4.65854e-005 -8.18505e-006
24
root  8.78646 40.5522 -0.640617 -168.848 -84.7549 164.663
RightUpLeg  -0.540781 -10.3426 -6.97792
RightLeg  13.7282 -1.82959 0.17281
RightFoot  -11.4388 -0.0749909 2.79259
RightToes  0.00048216 0.542163 -0.142577
Spine  6.67055 1.03619 -0.842616
Spine1  -3.33213 1.06673 -0.220939
HEad  8.46639 -7.89739 -0.484283
LeftShoulder1  0.879159 -1.24245 -11.2223
LeftArm  -22.6127 9.85798 -7.15174
LeftForeArm  11.1395 -3.81465 0.0286169
LeftHand  -0.25398 0.0180481 5.50724
RightShoulder  0.740607 0.472988 11.4794
RightArm  -21.0744 -11.1206 3.90259
RightForeArm  -5.38263 9.85743 3.62109
RightHand  -2.91362 8.46544 -24.4837
LeftUpLeg  1.14745 6.65998 -0.141522
LeftLeg  8.75026 15.9749 -2.30895
LeftFoot  -10.7731 0.0739947 -1.91346
LeftToes  1.06244e-005 4.65854e-005 -8.18505e-006
25
root  8.59446 40.4521 -0.645679 -169.856 -83.848 165.068
RightUpLeg  -0.973585 -9.75756 -7.00005
RightLeg  15.9901 -1.43408 -0.453992
RightFoot  -12.1616 -0.0583342 3.41965
RightToes  0.00048216 0.542163 -0.142577
Spine  7.05767 1.33456 -1.2964
Spine1  -2.67479 1.30533 -0.165225
HEad  9.89401 -6.66775 -0.49121
LeftShoulder1  0.988579 -1.40477 -13.007
LeftArm  -23.6034 10.6081 -8.5281
LeftForeArm  11.9395 -5.74584 0.11553
LeftHand  -0.25398 0.0180481 5.50724
RightShoulder  0.923987 1.05138 13.3081
RightArm  -20.9219 -13.1953 4.80019
RightForeArm  -6.0043 14.1443 4.14351
RightHand  -2.96444 8.54677 -24.7524
LeftUpLeg  1.85113 7.42586 0.0533314
LeftLeg  9.64655 15.9596 -2.3429
LeftFoot  -11.6938 0.0623198 -2.61268
LeftToes  1.06244e-005 4.65854e-005 -8.18505e-006
26
root  8.4157 40.3488 -0.664266 -170.037 -82.6508 164.591
RightUpLeg  -2.16326 -8.88946 -7.24207
RightLeg  19.3058 -2.22439 -1.10741
RightFoot  -12.096 -0.0577904 3.69001
RightToes  0.00048216 0.542163 -0.142577
Spine  7.74849 1.55282 -1.78244
Spine1  -2.11204 1.47876 -0.260896
HEad  11.1826 -5.15818 -0.578853
LeftShoulder1  1.16449 -1.68808 -15.508
LeftArm  -23.6199 11.4608 -9.56364
LeftForeArm  12.5853 -7.60973 -0.168431
LeftHand  -0.25398 0.0180481 5.50724
RightShoulder  1.19755 1.81813 15.7546
RightArm  -19.794 -15.1593 5.75992
RightForeArm  -6.26153 19.0156 4.71232
RightHand  -3.01436 8.6123 -25.0377
LeftUpLeg  2.56015 8.08916 -0.010657
LeftLeg  10.5635 16.4106 -2.15667
LeftFoot  -12.4327 0.0467155 -2.94355
LeftToes  1.06244e-005 4.65854e-005 -8.18505e-006
27
root  8.2354 40.2655 -0.690937 -171.06 -81.3201 164.913
RightUpLeg  -3.91687 -8.66762 -7.52456
RightLeg  23.0599 -3.81302 -1.99943
RightFoot  -11.374 -0.0759826 3.58849
RightToes  0.00048216 0.542163 -0.142577
Spine  8.58303 1.68741 -1.90185
Spine1  -1.36404 1.62255 -0.572131
HEad  12.0502 -3.54878 -0.793331
LeftShoulder1  1.48755 -2.28522 -19.0264
LeftArm  -22.4887 11.9241 -10.0525
LeftForeArm  13.1833 -8.78826 -0.772837
LeftHand  -0.25398 0.0180481 5.50724
RightShoulder  1.51138 2.53779 18.4965
RightArm  -18.3143 -16.8823 6.99783
RightForeArm  -5.16284 23.9081 5.3645
RightHand  -3.03577 8.57789 -25.2659
LeftUpLeg  3.37063 8.75367 -0.0507508
LeftLeg  11.3898 16.9982 -1.84408
LeftFoot  -13.1347 0.0297807 -3.12302
LeftToes  1.06244e-005 4.65854e-005 -8.18505e-006
28
root  8.03043 40.1992 -0.730675 -172.784 -79.9889 165.954
RightUpLeg  -5.95489 -9.21854 -7.71374
RightLeg  26.358 -5.2576 -3.04842
RightFoot  -10.492 -0.0959223 3.33723
RightToes  0.00048216 0.542163 -0.142577
Spine  9.24227 1.73786 -1.66889
Spine1  -0.125581 1.73508 -1.00902
HEad  12.405 -1.79047 -1.08591
LeftShoulder1  2.03808 -3.38021 -23.209
LeftArm  -20.9227 11.8675 -10.5341
LeftForeArm  13.2053 -8.72206 -1.37555
LeftHand  -0.25398 0.0180481 5.50724
RightShoulder  1.85269 3.21912 21.2229
RightArm  -17.1515 -18.3388 8.72966
RightForeArm  -1.51848 28.0336 6.13584
RightHand  -2.98707 8.41729 -25.1525
LeftUpLeg  4.30968 9.29974 0.0627387
LeftLeg  12.0489 17.5736 -1.55305
LeftFoot  -13.9391 0.00235476 -3.5691
LeftToes  1.06244e-005 4.65854e-005 -8.18505e-006
29
root  7.79262 40.1408 -0.785247 -174.271 -78.7569 166.89
RightUpLeg  -8.1268 -9.96296 -7.88449
RightLeg  28.4025 -5.94152 -3.69532
RightFoot  -9.77744 -0.109099 3.1269
RightToes  0.00048216 0.542163 -0.142577
Spine  9.71162 1.66375 -1.32733
Spine1  1.32717 1.75853 -1.51564
HEad  12.4656 0.0710323 -1.31899
LeftShoulder1  2.80402 -4.86515 -27.3226
LeftArm  -19.5751 11.292 -11.7767
LeftForeArm  11.796 -7.05455 -1.77793
LeftHand  -0.25398 0.0180481 5.50724
RightShoulder  2.25763 4.01878 23.8234
RightArm  -15.4785 -19.5701 11.0216
RightForeArm  2.94467 30.7831 6.57375
RightHand  -2.8979 8.22517 -24.7638
LeftUpLeg  5.26372 9.55712 0.204129
LeftLeg  12.5084 18.3436 -1.32286
LeftFoot  -14.7798 -0.0369746 -4.18364
LeftToes  1.06244e-005 4.65854e-005 -8.18505e-006
